HIERARCHY
ROOT SpineBase
{
  OFFSET 0.000000 0.000000 0.000000
  CHANNELS 6 Xposition Yposition Zposition Zrotation Xrotation Yrotation
  JOINT SpineMid
  {
    OFFSET 0.000000 28.323901 0.000000
    CHANNELS 3 Zrotation Xrotation Yrotation
    JOINT SpineShoulder
    {
      OFFSET -0.122707 21.054726 -0.595517
      CHANNELS 3 Zrotation Xrotation Yrotation
      JOINT Neck
      {
        OFFSET -0.080471 6.970275 -0.471500
        CHANNELS 3 Zrotation Xrotation Yrotation
        JOINT Head
        {
          OFFSET -2.351636 13.163370 0.459150
          CHANNELS 3 Zrotation Xrotation Yrotation
          End Site
          {
            OFFSET 0 0 0
          }
        }
      }
      JOINT ShoulderLeft
      {
        OFFSET -13.580601 -4.047955 6.791355
        CHANNELS 3 Zrotation Xrotation Yrotation
        JOINT ElbowLeft
        {
          OFFSET -1.257047 -26.861477 2.798099
          CHANNELS 3 Zrotation Xrotation Yrotation
          JOINT WristLeft
          {
            OFFSET 0.009974 -21.517759 -2.271181
            CHANNELS 3 Zrotation Xrotation Yrotation
            JOINT HandLeft
            {
              OFFSET 0.365271 -3.631987 -0.690078
              CHANNELS 3 Zrotation Xrotation Yrotation
              JOINT HandTipLeft
              {
                OFFSET 1.913166 -7.453646 -1.866605
                CHANNELS 3 Zrotation Xrotation Yrotation
                End Site
                {
                  OFFSET 0 0 0
                }
              }
              JOINT ThumbLeft
              {
                OFFSET -2.768751 -0.439603 -0.604721
                CHANNELS 3 Zrotation Xrotation Yrotation
                End Site
                {
                  OFFSET 0 0 0
                }
              }
            }
          }
        }
      }
      JOINT ShoulderRight
      {
        OFFSET 10.062086 -4.043121 -11.443262
        CHANNELS 3 Zrotation Xrotation Yrotation
        JOINT ElbowRight
        {
          OFFSET 6.259080 -21.594208 -2.580976
          CHANNELS 3 Zrotation Xrotation Yrotation
          JOINT WristRight
          {
            OFFSET -1.877195 -19.675841 -4.076479
            CHANNELS 3 Zrotation Xrotation Yrotation
            JOINT HandRight
            {
              OFFSET -1.027223 -7.381091 -0.249270
              CHANNELS 3 Zrotation Xrotation Yrotation
              JOINT HandTipRight
              {
                OFFSET -0.768505 -6.762849 -0.349826
                CHANNELS 3 Zrotation Xrotation Yrotation
                End Site
                {
                  OFFSET 0 0 0
                }
              }
              JOINT ThumbRight
              {
                OFFSET 2.604720 -0.516912 -1.761327
                CHANNELS 3 Zrotation Xrotation Yrotation
                End Site
                {
                  OFFSET 0 0 0
                }
              }
            }
          }
        }
      }
    }
  }
  JOINT HipLeft
  {
    OFFSET -5.495748 0.372984 0.082657
    CHANNELS 3 Zrotation Xrotation Yrotation
    JOINT KneeLeft
    {
      OFFSET 6.121403 -28.104711 7.455748
      CHANNELS 3 Zrotation Xrotation Yrotation
      JOINT AnkleLeft
      {
        OFFSET 7.005928 -31.840832 9.594306
        CHANNELS 3 Zrotation Xrotation Yrotation
        JOINT FootLeft
        {
          OFFSET -5.951072 -2.294520 -11.688545
          CHANNELS 3 Zrotation Xrotation Yrotation
          End Site
          {
            OFFSET 0 0 0
          }
        }
      }
    }
  }
  JOINT HipRight
  {
    OFFSET 4.925976 0.923595 -6.470904
    CHANNELS 3 Zrotation Xrotation Yrotation
    JOINT KneeRight
    {
      OFFSET 9.856398 -30.251682 2.513288
      CHANNELS 3 Zrotation Xrotation Yrotation
      JOINT AnkleRight
      {
        OFFSET 4.382430 -28.498258 9.479469
        CHANNELS 3 Zrotation Xrotation Yrotation
        JOINT FootRight
        {
          OFFSET -5.174368 -3.395151 -9.598744
          CHANNELS 3 Zrotation Xrotation Yrotation
          End Site
          {
            OFFSET 0 0 0
          }
        }
      }
    }
  }
}
MOTION
Frames: 6
Frame Time: 0.033333
28.783184 71.751720 337.441183 1.163700 4.260523 26.872287 -0.425290 -0.768570 -26.858946 0.234819 -0.196554 0.086959 7.782523 5.498753 0.867608 0.000000 0.000000 0.000000 0.411512 13.405321 -0.940518 -8.705246 -64.074888 -4.236441 -26.690081 46.726388 25.513190 -2.375158 -18.654298 -7.185850 0.000000 0.000000 0.000000 0.000000 0.000000 0.000000 -170.545619 63.585447 -150.313599 -24.946544 57.161006 -120.495257 -19.438725 2.094531 -56.488813 -34.796410 -19.013358 -101.440486 0.000000 0.000000 0.000000 0.000000 0.000000 0.000000 -13.119653 -7.931969 -31.700831 8.826170 8.056563 3.273833 5.784368 -14.834670 2.071450 0.000000 0.000000 0.000000 -8.685174 -3.353281 -28.639687 9.192846 3.788668 2.487345 -3.168243 -3.017854 -1.412255 0.000000 0.000000 0.000000
28.620347 72.065454 337.230517 1.059282 4.282326 27.845256 -0.254593 -0.739215 -27.821019 0.311547 -0.142395 0.097538 8.182086 5.711549 0.889050 0.000000 0.000000 0.000000 0.290491 13.221399 -0.951358 -7.788811 -58.336758 -3.241362 -17.921613 40.494660 16.285453 -6.232541 -16.954360 -5.899976 0.000000 0.000000 0.000000 0.000000 0.000000 0.000000 -170.762119 64.703085 -150.625034 -25.627175 58.059061 -119.542213 -20.587634 -1.908904 -63.367171 -38.357160 -19.991556 -106.472426 0.000000 0.000000 0.000000 0.000000 0.000000 0.000000 -14.864562 -7.243861 -33.320722 10.902500 8.583945 3.678252 5.238864 -14.709834 3.788763 0.000000 0.000000 0.000000 -8.141059 -2.943893 -29.358136 8.992766 2.959129 2.345290 -2.500021 -4.383043 -1.046796 0.000000 0.000000 0.000000
28.425430 72.403830 337.068822 0.898341 4.302917 29.625134 -0.077532 -0.719326 -29.588528 0.355394 -0.113034 0.103310 8.571494 5.845080 0.909204 0.000000 0.000000 0.000000 0.241293 13.059654 -0.955267 -7.114432 -54.032279 -2.591313 -15.653347 31.898084 12.559426 -4.543086 -12.491927 -4.378479 0.000000 0.000000 0.000000 0.000000 0.000000 0.000000 -170.019504 65.331890 -151.949163 -26.983375 58.357544 -118.422085 -23.818597 -4.105277 -70.787256 -35.816904 -24.920250 -113.799183 0.000000 0.000000 0.000000 0.000000 0.000000 0.000000 -15.276182 -6.430999 -35.141916 11.418624 8.505965 3.770146 6.221967 -16.514926 5.042648 0.000000 0.000000 0.000000 -7.626887 -2.983029 -31.040647 8.504985 2.723913 2.283158 -2.134788 -5.430437 -0.165376 0.000000 0.000000 0.000000
28.231106 72.749648 336.948295 0.723867 4.294435 31.609046 0.095605 -0.643835 -31.562301 0.351450 -0.089136 0.102514 8.956050 5.768637 0.932060 0.000000 0.000000 0.000000 0.288261 12.876155 -0.949073 -6.571231 -50.080329 -2.094263 -14.639801 23.153178 9.833750 -1.598638 -5.858968 -2.559887 0.000000 0.000000 0.000000 0.000000 0.000000 0.000000 -169.306488 65.884709 -153.026055 -27.573209 57.896500 -116.892935 -23.738590 -3.213960 -69.364234 -31.443879 -27.538625 -110.259079 0.000000 0.000000 0.000000 0.000000 0.000000 0.000000 -14.443557 -5.868200 -36.683184 10.312311 8.033939 3.568394 8.515149 -19.613535 6.055832 0.000000 0.000000 0.000000 -7.329023 -3.632437 -33.159481 7.842922 3.385703 2.377070 -2.135312 -6.161831 0.991872 0.000000 0.000000 0.000000
28.033919 73.058248 336.797744 0.484743 4.435267 33.201173 0.250790 -0.558554 -33.145071 0.296749 -0.069249 0.093840 9.505973 5.133366 0.960766 0.000000 0.000000 0.000000 0.479511 12.545439 -0.926038 -6.194926 -46.964535 -1.762080 -14.773763 16.566633 8.340717 1.326424 -2.041127 -2.360079 0.000000 0.000000 0.000000 0.000000 0.000000 0.000000 -168.448181 66.473594 -154.010000 -27.858606 57.183062 -115.417294 -27.173256 2.043748 -69.045299 -29.390382 -25.165269 -119.922803 0.000000 0.000000 0.000000 0.000000 0.000000 0.000000 -14.575267 -5.781082 -38.326132 10.083123 8.585489 3.646476 13.240489 -26.910393 6.988514 0.000000 0.000000 0.000000 -6.828693 -3.797710 -34.636456 7.450100 2.994735 2.304030 -2.597132 -6.028642 2.512610 0.000000 0.000000 0.000000
27.909001 73.269522 336.662574 0.376925 4.630280 34.354182 0.266016 -0.542241 -34.295085 0.260579 -0.084935 0.087967 9.659373 4.646783 0.985636 0.000000 0.000000 0.000000 0.610152 12.332439 -0.909824 -6.194949 -44.112153 -1.632293 -12.066744 6.737148 4.528418 2.706592 5.122468 -1.502171 0.000000 0.000000 0.000000 0.000000 0.000000 0.000000 -167.596902 66.857221 -155.042020 -27.820579 57.626498 -115.486239 -26.571512 7.248275 -60.998088 -31.867598 -21.783394 -143.008270 0.000000 0.000000 0.000000 0.000000 0.000000 0.000000 -13.912467 -5.870492 -39.173409 9.015714 8.172682 3.418461 15.082003 -29.053075 6.962649 0.000000 0.000000 0.000000 -6.374572 -3.479903 -35.523748 7.423755 2.093800 2.170112 -4.923983 -3.163146 4.526074 0.000000 0.000000 0.000000
